# Blender v2.83.0 OBJ File: ''
# www.blender.org
mtllib paper_airplane.mtl
o paper_airplane
v -0.076150 0.132560 -0.310190
v -0.069840 0.160630 -0.105180
v -0.238490 0.082930 0.198920
v 0.070890 0.126020 -0.303980
v 0.240720 0.079840 0.203340
v 0.064450 0.159950 -0.109980
v 0.087480 0.156130 0.515160
v 0.240720 0.079840 0.515160
v 0.000330 -0.009900 -0.550000
v -0.088720 0.160490 0.515160
v 0.002020 -0.057220 0.510110
v 0.009340 0.069660 -0.157580
v -0.008570 0.073440 -0.156080
v -0.238490 0.082930 0.515160
vt 0.181083 0.774342
vt 0.000000 0.805509
vt 0.000000 0.643714
vt 0.807452 0.776346
vt 1.000000 0.639002
vt 1.000000 0.834296
vt 0.800864 0.000000
vt 0.492937 0.000000
vt 0.493902 1.000000
vt 1.000000 1.000000
vt 0.000000 1.000000
vt 0.179276 0.000000
vt 1.000000 0.000000
vt 0.000000 0.000000
vn 0.5543 -0.8268 0.0961
vn -0.5814 -0.8045 0.1214
vn 0.3761 0.9256 -0.0416
vn 0.8936 0.4484 0.0186
vn -0.9283 0.3717 0.0051
vn 0.8159 -0.5643 0.1258
vn -0.7826 -0.6130 0.1080
vn -0.3967 0.9172 -0.0371
vn 0.4457 0.8952 0.0000
vn 0.9230 0.3847 0.0010
vn -0.9022 0.4309 0.0207
vn 0.7940 -0.5990 0.1032
vn -0.7856 -0.6087 0.1110
vn -0.4599 0.8880 0.0000
usemtl Default_OBJ
s off
f 1/1/1 2/2/1 3/3/1
f 4/4/2 5/5/2 6/6/2
f 7/7/3 5/5/3 4/4/3
f 1/1/4 11/8/4 9/9/4
f 4/4/5 11/8/5 7/7/5
f 12/10/6 4/4/6 6/6/6
f 1/1/7 13/11/7 2/2/7
f 3/3/8 10/12/8 1/1/8
f 7/7/9 8/13/9 5/5/9
f 1/1/10 10/12/10 11/8/10
f 4/4/11 9/9/11 11/8/11
f 12/10/12 9/9/12 4/4/12
f 1/1/13 9/9/13 13/11/13
f 3/3/14 14/14/14 10/12/14
