# Blender v2.83.0 OBJ File: ''
# www.blender.org
mtllib table_tri.mtl
o table
v -71.196297 44.857800 -1.272098
v -65.607002 44.857800 -1.272098
v -65.607002 40.914902 -1.272098
v -71.196297 40.914902 -1.272098
v -71.167801 44.825397 44.066605
v -71.167801 39.774696 44.066601
v -63.382500 39.774696 44.066601
v -63.382500 44.825397 44.066605
v 71.210899 40.914902 -1.272098
v 65.621597 40.914902 -1.272098
v 65.621597 44.857800 -1.272098
v 71.210899 44.857800 -1.272098
v 63.397202 44.825397 44.066605
v 63.397202 39.774696 44.066601
v 71.182503 39.774696 44.066601
v 71.182503 44.825397 44.066605
v 71.210899 -44.623901 -1.272102
v 65.621597 -44.623901 -1.272102
v 65.621597 -40.680901 -1.272102
v 71.210899 -40.680901 -1.272102
v 71.182503 -44.591503 44.066597
v 71.182503 -39.540802 44.066601
v 63.397099 -39.540802 44.066601
v 63.397099 -44.591503 44.066597
v 70.688797 -44.095001 38.041996
v 69.008797 -44.095001 38.041996
v 69.008797 44.351501 38.042004
v 70.688797 44.351501 38.042004
v 70.688797 -44.095005 44.066597
v 70.688797 44.351498 44.066605
v 69.008797 44.351498 44.066605
v 69.008797 -44.095005 44.066597
v -69.003304 -44.095001 38.041996
v -70.683296 -44.095001 38.041996
v -70.683296 44.351501 38.042103
v -69.003304 44.351501 38.042103
v -69.003304 -44.095005 44.066597
v -69.003304 44.351498 44.066605
v -70.683296 44.351498 44.066605
v -70.683296 -44.095005 44.066597
v 70.646004 -44.094898 38.041996
v -70.552002 -44.094898 38.041996
v -70.552002 -42.249298 38.042000
v 70.646004 -42.249298 38.042000
v 70.646004 -44.094902 44.066597
v 70.646004 -42.249302 44.066601
v -70.552002 -42.249302 44.066601
v -70.552002 -44.094902 44.066597
v 70.646004 42.498402 38.042000
v -70.552002 42.498402 38.042000
v -70.552002 44.344101 38.042004
v 70.646004 44.344101 38.042004
v 70.646004 42.498398 44.066601
v 70.646004 44.344097 44.066605
v -70.552002 44.344097 44.066605
v -70.552002 42.498398 44.066601
v -71.196198 -40.680901 -1.272102
v -65.607002 -40.680901 -1.272102
v -65.607002 -44.623901 -1.272102
v -71.196198 -44.623901 -1.272102
v -63.382500 -44.591503 44.066597
v -63.382500 -39.540802 44.066601
v -71.167900 -39.540802 44.066601
v -71.167900 -44.591503 44.066597
v 73.847603 -47.459404 44.028698
v -73.847603 -47.459404 44.028698
v -73.847603 47.459396 44.028706
v 73.847603 47.459396 44.028706
v 73.847603 -47.459404 46.190197
v 73.847603 47.459396 46.190205
v -73.847603 47.459396 46.190205
v -73.847603 -47.459404 46.190197
vt -327.538696 644.801270
vt -329.657990 646.296326
vt -329.657990 644.801270
vt -329.647186 470.714508
vt -326.695312 472.629486
vt -329.647186 472.629486
vt -186.998001 192.216095
vt -185.515305 175.025497
vt -185.503006 192.216095
vt -320.954315 37.369598
vt -323.062714 54.560200
vt -323.073486 37.369598
vt -549.138977 37.369598
vt -547.656311 54.560200
vt -549.571411 54.560200
vt -602.174194 37.369701
vt -600.065674 54.560200
vt -603.017578 54.560299
vt -373.989502 -143.998993
vt -375.484497 -146.118195
vt -373.989502 -146.118195
vt -278.625610 470.714508
vt -275.673706 472.629486
vt -278.625610 472.629486
vt -547.656311 54.560200
vt -549.138977 37.369598
vt -547.643982 37.369598
vt -269.089294 54.560200
vt -271.197815 37.369598
vt -269.078613 37.369598
vt -185.515305 175.025497
vt -186.998001 192.216095
vt -187.430298 175.025497
vt -654.039124 54.560299
vt -651.930725 37.369701
vt -651.087280 54.560200
vt -341.556702 -143.998993
vt -343.051697 -146.118195
vt -341.556702 -146.118195
vt -275.673706 440.641296
vt -278.625610 438.726288
vt -275.673706 438.726288
vt -580.076782 37.369701
vt -581.559570 54.560200
vt -581.571777 37.369701
vt -651.930725 37.369701
vt -654.039124 54.560299
vt -654.049988 37.369701
vt -217.935806 192.216095
vt -219.418503 175.025497
vt -217.503494 175.025497
vt -271.197815 37.369598
vt -269.089294 54.560200
vt -272.041199 54.560200
vt -425.923096 -276.497986
vt -392.387787 -275.860992
vt -425.923096 -275.860992
vt -275.860901 472.449799
vt -276.497894 438.914490
vt -275.860901 438.914490
vt -219.844406 -474.057312
vt -186.309097 -476.341400
vt -186.309097 -474.057312
vt -474.057098 367.070801
vt -476.341400 366.433807
vt -474.057098 366.433807
vt -330.845398 -121.567398
vt -297.310089 -123.851700
vt -297.310089 -121.567398
vt -474.057098 751.009277
vt -476.341309 750.372314
vt -474.057098 750.372314
vt -425.923096 -329.463593
vt -392.387787 -328.826508
vt -425.923096 -328.826508
vt -328.826508 472.449799
vt -329.463501 438.914490
vt -328.826508 438.914490
vt -219.844406 -474.057312
vt -186.309097 -476.341400
vt -186.309097 -474.057312
vt -474.057098 420.036407
vt -476.341400 419.399414
vt -474.057098 419.399414
vt -299.445404 -166.754303
vt -332.980713 -169.038498
vt -299.445404 -169.038498
vt -474.057098 698.043701
vt -476.341309 697.406677
vt -474.057098 697.406677
vt -425.923096 -329.413788
vt -425.223389 -275.877197
vt -425.923096 -275.877197
vt -275.877197 439.614288
vt -329.413696 438.914490
vt -275.877197 438.914490
vt -474.057098 439.614288
vt -476.341400 438.914490
vt -474.057098 438.914490
vt -474.057098 419.986603
vt -476.341400 366.450104
vt -474.057098 366.450012
vt -474.057098 678.528625
vt -476.341309 677.828796
vt -474.057098 677.828796
vt -498.387604 -474.057098
vt -444.851105 -476.341400
vt -444.851105 -474.057098
vt -393.090515 -329.413788
vt -392.390686 -275.877197
vt -393.090515 -275.877197
vt -275.877106 472.446991
vt -329.413696 471.747192
vt -275.877106 471.747192
vt -474.057098 472.446991
vt -476.341400 471.747192
vt -474.057098 471.747192
vt -474.057098 419.986603
vt -476.341400 366.450012
vt -474.057098 366.450012
vt -474.057098 645.695923
vt -476.341400 644.996094
vt -474.057098 644.996094
vt -498.387604 -474.057098
vt -444.851105 -476.341400
vt -444.851105 -474.057098
vt -343.051697 -94.242401
vt -341.556610 -92.123199
vt -343.051697 -92.123199
vt -326.695312 440.641296
vt -329.647186 438.726288
vt -326.695312 438.726288
vt -219.418503 175.025497
vt -217.935806 192.216095
vt -219.430801 192.216095
vt -600.065674 54.560200
vt -602.174194 37.369701
vt -600.054993 37.369701
vt -581.559509 54.560200
vt -580.076782 37.369701
vt -579.644470 54.560200
vt -323.062714 54.560200
vt -320.954315 37.369598
vt -320.110901 54.560200
vt -934.736084 314.333313
vt -898.746826 370.333313
vt -934.736084 370.333313
vt -728.560120 370.333313
vt -692.570801 314.333313
vt -692.570679 370.333313
vt -246.167801 -191.779999
vt -210.178406 -192.599503
vt -210.178406 -191.779999
vt -193.775696 -191.779999
vt -137.775696 -192.599503
vt -137.775696 -191.779999
vt -334.256409 -169.024094
vt -298.266998 -169.843704
vt -298.266998 -169.024094
vt -524.746521 -191.779999
vt -468.746490 -192.599503
vt -468.746490 -191.779999
vt -327.538696 646.296326
vt -326.695312 470.714508
vt -187.430298 175.025497
vt -320.110809 54.560200
vt -547.643982 37.369598
vt -600.054993 37.369701
vt -375.484497 -143.998993
vt -275.673706 470.714508
vt -549.571411 54.560200
vt -272.041199 54.560200
vt -185.503006 192.216095
vt -654.049988 37.369701
vt -343.051697 -143.998993
vt -278.625610 440.641296
vt -579.644470 54.560200
vt -651.087280 54.560200
vt -219.430801 192.216095
vt -269.078613 37.369598
vt -392.387787 -276.497894
vt -276.497894 472.449799
vt -219.844406 -476.341400
vt -476.341400 367.070801
vt -330.845398 -123.851700
vt -476.341309 751.009277
vt -392.387787 -329.463501
vt -329.463409 472.449799
vt -219.844406 -476.341400
vt -476.341400 420.036407
vt -332.980713 -166.754303
vt -476.341309 698.043701
vt -425.223389 -329.413788
vt -329.413696 439.614288
vt -476.341400 439.614288
vt -476.341400 419.986603
vt -476.341309 678.528625
vt -498.387604 -476.341400
vt -392.390686 -329.413788
vt -329.413696 472.446991
vt -476.341400 472.446991
vt -476.341400 419.986603
vt -476.341400 645.695923
vt -498.387604 -476.341400
vt -341.556610 -94.242401
vt -329.647186 440.641296
vt -217.503494 175.025497
vt -603.017578 54.560200
vt -581.571777 37.369701
vt -323.073486 37.369598
vt -898.746826 314.333313
vt -728.560120 314.333313
vt -246.167801 -192.599503
vt -193.775696 -192.599503
vt -334.256409 -169.843704
vt -524.746521 -192.599503
vn 0.0000 0.0000 -1.0000
vn 0.0000 -0.0000 1.0000
vn -1.0000 0.0000 0.0006
vn 0.0000 -0.9997 -0.0251
vn 0.9988 0.0000 -0.0490
vn 0.0000 1.0000 0.0007
vn 1.0000 -0.0000 0.0006
vn -0.9988 0.0000 -0.0490
vn 0.0000 0.9997 -0.0251
vn 0.0000 -1.0000 0.0007
vn 1.0000 -0.0000 0.0000
vn 0.0000 1.0000 0.0000
vn -1.0000 -0.0000 0.0000
vn 0.0000 -1.0000 -0.0000
usemtl Pine_mat
s 1
f 2/1/1 4/2/1 1/3/1
f 6/4/2 8/5/2 5/6/2
f 4/7/3 5/8/3 1/9/3
f 3/10/4 6/11/4 4/12/4
f 3/13/5 8/14/5 7/15/5
f 2/16/6 5/17/6 8/18/6
f 10/19/1 12/20/1 9/21/1
f 14/22/2 16/23/2 13/24/2
f 16/25/7 9/26/7 12/27/7
f 15/28/4 10/29/4 9/30/4
f 13/31/8 10/32/8 14/33/8
f 16/34/6 11/35/6 13/36/6
f 18/37/1 20/38/1 17/39/1
f 22/40/2 24/41/2 21/42/2
f 20/43/7 21/44/7 17/45/7
f 19/46/9 22/47/9 20/48/9
f 19/49/8 24/50/8 23/51/8
f 18/52/10 21/53/10 24/54/10
f 26/55/1 28/56/1 25/57/1
f 30/58/2 32/59/2 29/60/2
f 28/61/11 29/62/11 25/63/11
f 27/64/12 30/65/12 28/66/12
f 26/67/13 31/68/13 27/69/13
f 25/70/14 32/71/14 26/72/14
f 34/73/1 36/74/1 33/75/1
f 38/76/2 40/77/2 37/78/2
f 36/79/11 37/80/11 33/81/11
f 35/82/12 38/83/12 36/84/12
f 35/85/13 40/86/13 39/87/13
f 33/88/14 40/89/14 34/90/14
f 42/91/1 44/92/1 41/93/1
f 46/94/2 48/95/2 45/96/2
f 44/97/11 45/98/11 41/99/11
f 43/100/12 46/101/12 44/102/12
f 42/103/13 47/104/13 43/105/13
f 41/106/14 48/107/14 42/108/14
f 50/109/1 52/110/1 49/111/1
f 54/112/2 56/113/2 53/114/2
f 52/115/11 53/116/11 49/117/11
f 51/118/12 54/119/12 52/120/12
f 50/121/13 55/122/13 51/123/13
f 49/124/14 56/125/14 50/126/14
f 58/127/1 60/128/1 57/129/1
f 62/130/2 64/131/2 61/132/2
f 64/133/3 57/134/3 60/135/3
f 63/136/9 58/137/9 57/138/9
f 61/139/5 58/140/5 62/141/5
f 64/142/10 59/143/10 61/144/10
f 66/145/1 68/146/1 65/147/1
f 70/148/2 72/149/2 69/150/2
f 68/151/11 69/152/11 65/153/11
f 67/154/12 70/155/12 68/156/12
f 66/157/13 71/158/13 67/159/13
f 65/160/14 72/161/14 66/162/14
f 2/1/1 3/163/1 4/2/1
f 6/4/2 7/164/2 8/5/2
f 4/7/3 6/165/3 5/8/3
f 3/10/4 7/166/4 6/11/4
f 3/13/5 2/167/5 8/14/5
f 2/16/6 1/168/6 5/17/6
f 10/19/1 11/169/1 12/20/1
f 14/22/2 15/170/2 16/23/2
f 16/25/7 15/171/7 9/26/7
f 15/28/4 14/172/4 10/29/4
f 13/31/8 11/173/8 10/32/8
f 16/34/6 12/174/6 11/35/6
f 18/37/1 19/175/1 20/38/1
f 22/40/2 23/176/2 24/41/2
f 20/43/7 22/177/7 21/44/7
f 19/46/9 23/178/9 22/47/9
f 19/49/8 18/179/8 24/50/8
f 18/52/10 17/180/10 21/53/10
f 26/55/1 27/181/1 28/56/1
f 30/58/2 31/182/2 32/59/2
f 28/61/11 30/183/11 29/62/11
f 27/64/12 31/184/12 30/65/12
f 26/67/13 32/185/13 31/68/13
f 25/70/14 29/186/14 32/71/14
f 34/73/1 35/187/1 36/74/1
f 38/76/2 39/188/2 40/77/2
f 36/79/11 38/189/11 37/80/11
f 35/82/12 39/190/12 38/83/12
f 35/85/13 34/191/13 40/86/13
f 33/88/14 37/192/14 40/89/14
f 42/91/1 43/193/1 44/92/1
f 46/94/2 47/194/2 48/95/2
f 44/97/11 46/195/11 45/98/11
f 43/100/12 47/196/12 46/101/12
f 42/103/13 48/197/13 47/104/13
f 41/106/14 45/198/14 48/107/14
f 50/109/1 51/199/1 52/110/1
f 54/112/2 55/200/2 56/113/2
f 52/115/11 54/201/11 53/116/11
f 51/118/12 55/202/12 54/119/12
f 50/121/13 56/203/13 55/122/13
f 49/124/14 53/204/14 56/125/14
f 58/127/1 59/205/1 60/128/1
f 62/130/2 63/206/2 64/131/2
f 64/133/3 63/207/3 57/134/3
f 63/136/9 62/208/9 58/137/9
f 61/139/5 59/209/5 58/140/5
f 64/142/10 60/210/10 59/143/10
f 66/145/1 67/211/1 68/146/1
f 70/148/2 71/212/2 72/149/2
f 68/151/11 70/213/11 69/152/11
f 67/154/12 71/214/12 70/155/12
f 66/157/13 72/215/13 71/158/13
f 65/160/14 69/216/14 72/161/14
